<svg xmlns="http://www.w3.org/2000/svg" viewBox="0 0 512 512"><title>Mobile_Phone02</title><g id="Mobile_Phone_02" data-name="Mobile Phone 02"><g id="Mobile_Phone_02-2" data-name="Mobile Phone 02"><rect x="204.977" y="293.381" width="23.3712" height="13.439"/><rect x="244.5203" y="340.1195" width="23.3722" height="13.4438"/><rect x="204.977" y="316.757" width="23.3712" height="13.439"/><rect x="244.5203" y="316.757" width="23.3722" height="13.439"/><rect x="211.6518" y="164.451" width="89.3251" height="111.8582"/><rect x="204.977" y="340.1195" width="23.3712" height="13.4438"/><rect x="285.1139" y="316.757" width="23.3722" height="13.439"/><rect x="244.5203" y="293.381" width="23.3722" height="13.439"/><rect x="285.1139" y="293.381" width="23.3722" height="13.439"/><path d="M256,61.6773c-107.32,0-194.32,87.0048-194.32,194.3251,0,107.3155,87,194.32,194.32,194.32s194.32-87.0048,194.32-194.32C450.32,148.6821,363.32,61.6773,256,61.6773ZM327.377,349.56a27.5458,27.5458,0,0,1-27.554,27.5491H212.8048A27.5437,27.5437,0,0,1,185.2605,349.56V161.7419a27.5469,27.5469,0,0,1,27.5443-27.5529H299.823a27.546,27.546,0,0,1,27.554,27.5529Z"/><rect x="285.1139" y="340.1195" width="23.3722" height="13.4438"/><rect x="204.977" y="293.381" width="23.3712" height="13.439" style="fill:#231f20"/><rect x="244.5203" y="340.1195" width="23.3722" height="13.4438" style="fill:#231f20"/><rect x="204.977" y="316.757" width="23.3712" height="13.439" style="fill:#231f20"/><rect x="244.5203" y="316.757" width="23.3722" height="13.439" style="fill:#231f20"/><rect x="211.6518" y="164.451" width="89.3251" height="111.8582" style="fill:#231f20"/><rect x="204.977" y="340.1195" width="23.3712" height="13.4438" style="fill:#231f20"/><rect x="285.1139" y="316.757" width="23.3722" height="13.439" style="fill:#231f20"/><rect x="244.5203" y="293.381" width="23.3722" height="13.439" style="fill:#231f20"/><rect x="285.1139" y="293.381" width="23.3722" height="13.439" style="fill:#231f20"/><path d="M256,61.6773c-107.32,0-194.32,87.0048-194.32,194.3251,0,107.3155,87,194.32,194.32,194.32s194.32-87.0048,194.32-194.32C450.32,148.6821,363.32,61.6773,256,61.6773ZM327.377,349.56a27.5458,27.5458,0,0,1-27.554,27.5491H212.8048A27.5437,27.5437,0,0,1,185.2605,349.56V161.7419a27.5469,27.5469,0,0,1,27.5443-27.5529H299.823a27.546,27.546,0,0,1,27.554,27.5529Z" style="fill:#231f20"/><rect x="285.1139" y="340.1195" width="23.3722" height="13.4438" style="fill:#231f20"/></g></g></svg>